%TF.GenerationSoftware,KiCad,Pcbnew,9.0.7*%
%TF.CreationDate,2026-02-18T13:17:12-07:00*%
%TF.ProjectId,AS_1471_Dash,41535f31-3437-4315-9f44-6173682e6b69,rev?*%
%TF.SameCoordinates,Original*%
%TF.FileFunction,Soldermask,Bot*%
%TF.FilePolarity,Negative*%
%FSLAX46Y46*%
G04 Gerber Fmt 4.6, Leading zero omitted, Abs format (unit mm)*
G04 Created by KiCad (PCBNEW 9.0.7) date 2026-02-18 13:17:12*
%MOMM*%
%LPD*%
G01*
G04 APERTURE LIST*
%ADD10R,1.700000X1.700000*%
%ADD11C,1.700000*%
%ADD12C,2.000000*%
%ADD13R,0.230000X0.660000*%
%ADD14R,0.660000X0.230000*%
%ADD15R,0.660000X0.350000*%
%ADD16R,0.350000X0.660000*%
%ADD17C,3.175000*%
%TA.AperFunction,Profile*%
%ADD18C,0.050000*%
%TD*%
G04 APERTURE END LIST*
D10*
%TO.C,J6*%
X121800000Y-86010000D03*
D11*
X121800000Y-88550000D03*
%TD*%
D12*
%TO.C,TP1*%
X169357220Y-101526800D03*
%TD*%
D10*
%TO.C,J4*%
X163075000Y-78050000D03*
D11*
X165615000Y-78050000D03*
X168155000Y-78050000D03*
%TD*%
D10*
%TO.C,J7*%
X121800000Y-94100000D03*
D11*
X121800000Y-96640000D03*
%TD*%
D10*
%TO.C,J5*%
X127000000Y-78050000D03*
D11*
X129540000Y-78050000D03*
X132080000Y-78050000D03*
%TD*%
D12*
%TO.C,TP2*%
X169375000Y-81152540D03*
%TD*%
D13*
%TO.C,J1*%
X140096400Y-105027200D03*
X140096400Y-102317200D03*
X140496400Y-105027200D03*
X140496400Y-102317200D03*
X140896400Y-105027200D03*
X140896400Y-102317200D03*
X141296400Y-105027200D03*
X141296400Y-102317200D03*
X141696400Y-105027200D03*
X141696400Y-102317200D03*
X142096400Y-105027200D03*
X142096400Y-102317200D03*
X142496400Y-105027200D03*
X142496400Y-102317200D03*
X142896400Y-105027200D03*
X142896400Y-102317200D03*
X143296400Y-105027200D03*
X143296400Y-102317200D03*
X143696400Y-105027200D03*
X143696400Y-102317200D03*
X144096400Y-105027200D03*
X144096400Y-102317200D03*
X144496400Y-105027200D03*
X144496400Y-102317200D03*
X144896400Y-105027200D03*
X144896400Y-102317200D03*
X145296400Y-105027200D03*
X145296400Y-102317200D03*
X145696400Y-105027200D03*
X145696400Y-102317200D03*
X146096400Y-105027200D03*
X146096400Y-102317200D03*
X146496400Y-105027200D03*
X146496400Y-102317200D03*
X146896400Y-105027200D03*
X146896400Y-102317200D03*
X147296400Y-105027200D03*
X147296400Y-102317200D03*
X147696400Y-105027200D03*
X147696400Y-102317200D03*
X148096400Y-105027200D03*
X148096400Y-102317200D03*
X148496400Y-105027200D03*
X148496400Y-102317200D03*
X148896400Y-105027200D03*
X148896400Y-102317200D03*
X149296400Y-105027200D03*
X149296400Y-102317200D03*
X149696400Y-105027200D03*
X149696400Y-102317200D03*
X150096400Y-105027200D03*
X150096400Y-102317200D03*
X150496400Y-105027200D03*
X150496400Y-102317200D03*
X150896400Y-105027200D03*
X150896400Y-102317200D03*
X151296400Y-105027200D03*
X151296400Y-102317200D03*
X151696400Y-105027200D03*
X151696400Y-102317200D03*
X152096400Y-105027200D03*
X152096400Y-102317200D03*
X152496400Y-105027200D03*
X152496400Y-102317200D03*
X152896400Y-105027200D03*
X152896400Y-102317200D03*
X153296400Y-105027200D03*
X153296400Y-102317200D03*
X153696400Y-105027200D03*
X153696400Y-102317200D03*
X154096400Y-105027200D03*
X154096400Y-102317200D03*
X154496400Y-105027200D03*
X154496400Y-102317200D03*
X154896400Y-105027200D03*
X154896400Y-102317200D03*
X155296400Y-105027200D03*
X155296400Y-102317200D03*
X155696400Y-105027200D03*
X155696400Y-102317200D03*
X156096400Y-105027200D03*
X156096400Y-102317200D03*
X156496400Y-105027200D03*
X156496400Y-102317200D03*
X156896400Y-105027200D03*
X156896400Y-102317200D03*
X157296400Y-105027200D03*
X157296400Y-102317200D03*
X157696400Y-105027200D03*
X157696400Y-102317200D03*
X140096400Y-80327200D03*
X140096400Y-77617200D03*
X140496400Y-80327200D03*
X140496400Y-77617200D03*
X140896400Y-80327200D03*
X140896400Y-77617200D03*
X141296400Y-80327200D03*
X141296400Y-77617200D03*
X141696400Y-80327200D03*
X141696400Y-77617200D03*
X142096400Y-80327200D03*
X142096400Y-77617200D03*
X142496400Y-80327200D03*
X142496400Y-77617200D03*
X142896400Y-80327200D03*
X142896400Y-77617200D03*
X143296400Y-80327200D03*
X143296400Y-77617200D03*
X143696400Y-80327200D03*
X143696400Y-77617200D03*
X144096400Y-80327200D03*
X144096400Y-77617200D03*
X144496400Y-80327200D03*
X144496400Y-77617200D03*
X144896400Y-80327200D03*
X144896400Y-77617200D03*
X145296400Y-80327200D03*
X145296400Y-77617200D03*
X145696400Y-80327200D03*
X145696400Y-77617200D03*
X146096400Y-80327200D03*
X146096400Y-77617200D03*
X146496400Y-80327200D03*
X146496400Y-77617200D03*
X146896400Y-80327200D03*
X146896400Y-77617200D03*
X147296400Y-80327200D03*
X147296400Y-77617200D03*
X147696400Y-80327200D03*
X147696400Y-77617200D03*
X148096400Y-80327200D03*
X148096400Y-77617200D03*
X148496400Y-80327200D03*
X148496400Y-77617200D03*
X148896400Y-80327200D03*
X148896400Y-77617200D03*
X149296400Y-80327200D03*
X149296400Y-77617200D03*
X149696400Y-80327200D03*
X149696400Y-77617200D03*
X150096400Y-80327200D03*
X150096400Y-77617200D03*
X150496400Y-80327200D03*
X150496400Y-77617200D03*
X150896400Y-80327200D03*
X150896400Y-77617200D03*
X151296400Y-80327200D03*
X151296400Y-77617200D03*
X151696400Y-80327200D03*
X151696400Y-77617200D03*
X152096400Y-80327200D03*
X152096400Y-77617200D03*
X152496400Y-80327200D03*
X152496400Y-77617200D03*
X152896400Y-80327200D03*
X152896400Y-77617200D03*
X153296400Y-80327200D03*
X153296400Y-77617200D03*
X153696400Y-80327200D03*
X153696400Y-77617200D03*
X154096400Y-80327200D03*
X154096400Y-77617200D03*
X154496400Y-80327200D03*
X154496400Y-77617200D03*
X154896400Y-80327200D03*
X154896400Y-77617200D03*
X155296400Y-80327200D03*
X155296400Y-77617200D03*
X155696400Y-80327200D03*
X155696400Y-77617200D03*
X156096400Y-80327200D03*
X156096400Y-77617200D03*
X156496400Y-80327200D03*
X156496400Y-77617200D03*
X156896400Y-80327200D03*
X156896400Y-77617200D03*
X157296400Y-80327200D03*
X157296400Y-77617200D03*
X157696400Y-80327200D03*
X157696400Y-77617200D03*
D14*
X171066400Y-82522200D03*
X173776400Y-82522200D03*
X171066400Y-82922200D03*
X173781400Y-82928220D03*
X171066400Y-83322200D03*
X173776400Y-83322200D03*
X171066400Y-83722200D03*
X173776400Y-83722200D03*
X171066400Y-84122200D03*
X173776400Y-84122200D03*
X171066400Y-84522200D03*
X173776400Y-84522200D03*
X171066400Y-84922200D03*
X173776400Y-84922200D03*
X171066400Y-85322200D03*
X173776400Y-85322200D03*
X171066400Y-85722200D03*
X173776400Y-85722200D03*
X171066400Y-86122200D03*
X173776400Y-86122200D03*
X171066400Y-86522200D03*
X173776400Y-86522200D03*
X171066400Y-86922200D03*
X173776400Y-86922200D03*
X171066400Y-87322200D03*
X173776400Y-87322200D03*
X171066400Y-87722200D03*
X173776400Y-87722200D03*
X171066400Y-88122200D03*
X173776400Y-88122200D03*
X171066400Y-88522200D03*
X173776400Y-88522200D03*
X171066400Y-88922200D03*
X173776400Y-88922200D03*
X171066400Y-89322200D03*
X173776400Y-89322200D03*
X171066400Y-89722200D03*
X173776400Y-89722200D03*
X171066400Y-90122200D03*
X173776400Y-90122200D03*
X171066400Y-90522200D03*
X173776400Y-90522200D03*
X171066400Y-90922200D03*
X173776400Y-90922200D03*
X171066400Y-91322200D03*
X173776400Y-91322200D03*
X171066400Y-91722200D03*
X173776400Y-91722200D03*
X171066400Y-92122200D03*
X173776400Y-92122200D03*
X171066400Y-92522200D03*
X173776400Y-92522200D03*
X171066400Y-92922200D03*
X173776400Y-92922200D03*
X171066400Y-93322200D03*
X173776400Y-93322200D03*
X171066400Y-93722200D03*
X173776400Y-93722200D03*
X171066400Y-94122200D03*
X173776400Y-94122200D03*
X171066400Y-94522200D03*
X173776400Y-94522200D03*
X171066400Y-94922200D03*
X173776400Y-94922200D03*
X171066400Y-95322200D03*
X173776400Y-95322200D03*
X171066400Y-95722200D03*
X173776400Y-95722200D03*
X171066400Y-96122200D03*
X173776400Y-96122200D03*
X171066400Y-96522200D03*
X173776400Y-96522200D03*
X171066400Y-96922200D03*
X173776400Y-96922200D03*
X171066400Y-97322200D03*
X173776400Y-97322200D03*
X171066400Y-97722200D03*
X173776400Y-97722200D03*
X171066400Y-98122200D03*
X173776400Y-98122200D03*
X171066400Y-98522200D03*
X173776400Y-98522200D03*
X171066400Y-98922200D03*
X173776400Y-98922200D03*
X171066400Y-99322200D03*
X173776400Y-99322200D03*
X171066400Y-99722200D03*
X173776400Y-99722200D03*
X171066400Y-100122200D03*
X173776400Y-100122200D03*
D15*
X173776400Y-100597200D03*
X173776400Y-82047200D03*
X171066400Y-100597200D03*
X171066400Y-82047200D03*
D16*
X158171400Y-105027200D03*
X158171400Y-102317200D03*
X158171400Y-80327200D03*
X158171400Y-77617200D03*
X139621400Y-105027200D03*
X139621400Y-102317200D03*
X139621400Y-80327200D03*
X139621400Y-77617200D03*
D17*
X173042800Y-104301100D03*
X173042800Y-78355000D03*
X122207240Y-104301100D03*
X120563860Y-76551600D03*
%TD*%
D18*
X175180000Y-76275000D02*
X175180000Y-106385000D01*
X120000000Y-76275000D02*
X175180000Y-76275000D01*
X120000000Y-76275000D02*
X120000000Y-106385000D01*
X120000000Y-106385000D02*
X175180000Y-106385000D01*
M02*
