%TF.GenerationSoftware,KiCad,Pcbnew,9.0.7*%
%TF.CreationDate,2026-02-18T13:17:12-07:00*%
%TF.ProjectId,AS_1471_Dash,41535f31-3437-4315-9f44-6173682e6b69,rev?*%
%TF.SameCoordinates,Original*%
%TF.FileFunction,Legend,Bot*%
%TF.FilePolarity,Positive*%
%FSLAX46Y46*%
G04 Gerber Fmt 4.6, Leading zero omitted, Abs format (unit mm)*
G04 Created by KiCad (PCBNEW 9.0.7) date 2026-02-18 13:17:12*
%MOMM*%
%LPD*%
G01*
G04 APERTURE LIST*
%ADD10C,0.127000*%
%ADD11C,0.150000*%
%ADD12C,0.140000*%
%TA.AperFunction,Profile*%
%ADD13C,0.050000*%
%TD*%
G04 APERTURE END LIST*
D10*
X137980684Y-103488333D02*
X138434255Y-103488333D01*
X138434255Y-103488333D02*
X138524969Y-103458094D01*
X138524969Y-103458094D02*
X138585446Y-103397618D01*
X138585446Y-103397618D02*
X138615684Y-103306904D01*
X138615684Y-103306904D02*
X138615684Y-103246428D01*
X138615684Y-104123333D02*
X138615684Y-103760476D01*
X138615684Y-103941904D02*
X137980684Y-103941904D01*
X137980684Y-103941904D02*
X138071398Y-103881428D01*
X138071398Y-103881428D02*
X138131874Y-103820952D01*
X138131874Y-103820952D02*
X138162112Y-103760476D01*
X172558828Y-80477159D02*
X172558828Y-80930730D01*
X172558828Y-80930730D02*
X172589067Y-81021444D01*
X172589067Y-81021444D02*
X172649543Y-81081921D01*
X172649543Y-81081921D02*
X172740257Y-81112159D01*
X172740257Y-81112159D02*
X172800733Y-81112159D01*
X172316923Y-80477159D02*
X171923828Y-80477159D01*
X171923828Y-80477159D02*
X172135495Y-80719063D01*
X172135495Y-80719063D02*
X172044780Y-80719063D01*
X172044780Y-80719063D02*
X171984304Y-80749301D01*
X171984304Y-80749301D02*
X171954066Y-80779540D01*
X171954066Y-80779540D02*
X171923828Y-80840016D01*
X171923828Y-80840016D02*
X171923828Y-80991206D01*
X171923828Y-80991206D02*
X171954066Y-81051682D01*
X171954066Y-81051682D02*
X171984304Y-81081921D01*
X171984304Y-81081921D02*
X172044780Y-81112159D01*
X172044780Y-81112159D02*
X172226209Y-81112159D01*
X172226209Y-81112159D02*
X172286685Y-81081921D01*
X172286685Y-81081921D02*
X172316923Y-81051682D01*
X138005684Y-78863333D02*
X138459255Y-78863333D01*
X138459255Y-78863333D02*
X138549969Y-78833094D01*
X138549969Y-78833094D02*
X138610446Y-78772618D01*
X138610446Y-78772618D02*
X138640684Y-78681904D01*
X138640684Y-78681904D02*
X138640684Y-78621428D01*
X138066160Y-79135476D02*
X138035922Y-79165714D01*
X138035922Y-79165714D02*
X138005684Y-79226190D01*
X138005684Y-79226190D02*
X138005684Y-79377381D01*
X138005684Y-79377381D02*
X138035922Y-79437857D01*
X138035922Y-79437857D02*
X138066160Y-79468095D01*
X138066160Y-79468095D02*
X138126636Y-79498333D01*
X138126636Y-79498333D02*
X138187112Y-79498333D01*
X138187112Y-79498333D02*
X138277826Y-79468095D01*
X138277826Y-79468095D02*
X138640684Y-79105238D01*
X138640684Y-79105238D02*
X138640684Y-79498333D01*
D11*
%TO.C,J1*%
X138936414Y-102565207D02*
X139336414Y-102565207D01*
X138936414Y-104799447D02*
X138936414Y-102565207D01*
X138936414Y-104799447D02*
X139336414Y-104799447D01*
X138938080Y-77854818D02*
X139338080Y-77854818D01*
X138938080Y-80089058D02*
X138938080Y-77854818D01*
X138938080Y-80089058D02*
X139338080Y-80089058D01*
X158852159Y-102561679D02*
X158452159Y-102561679D01*
X158852159Y-102561679D02*
X158852159Y-104795919D01*
X158852159Y-104795919D02*
X158452159Y-104795919D01*
X158854304Y-77855438D02*
X158454304Y-77855438D01*
X158854304Y-77855438D02*
X158854304Y-80089678D01*
X158854304Y-80089678D02*
X158454304Y-80089678D01*
X171305215Y-101285386D02*
X171305215Y-100885386D01*
X171306400Y-81372200D02*
X171306400Y-81772200D01*
X171306400Y-81372200D02*
X173540640Y-81372200D01*
X173539455Y-101285386D02*
X171305215Y-101285386D01*
X173539455Y-101285386D02*
X173539455Y-100885386D01*
X173540640Y-81372200D02*
X173540640Y-81772200D01*
D12*
X140146400Y-80972200D02*
G75*
G02*
X140006400Y-80972200I-70000J0D01*
G01*
X140006400Y-80972200D02*
G75*
G02*
X140146400Y-80972200I70000J0D01*
G01*
X140166400Y-105682200D02*
G75*
G02*
X140026400Y-105682200I-70000J0D01*
G01*
X140026400Y-105682200D02*
G75*
G02*
X140166400Y-105682200I70000J0D01*
G01*
X170506400Y-82522200D02*
G75*
G02*
X170366400Y-82522200I-70000J0D01*
G01*
X170366400Y-82522200D02*
G75*
G02*
X170506400Y-82522200I70000J0D01*
G01*
%TD*%
D13*
X175180000Y-76275000D02*
X175180000Y-106385000D01*
X120000000Y-76275000D02*
X175180000Y-76275000D01*
X120000000Y-76275000D02*
X120000000Y-106385000D01*
X120000000Y-106385000D02*
X175180000Y-106385000D01*
M02*
