%TF.GenerationSoftware,KiCad,Pcbnew,9.0.7*%
%TF.CreationDate,2026-02-18T13:17:12-07:00*%
%TF.ProjectId,AS_1471_Dash,41535f31-3437-4315-9f44-6173682e6b69,rev?*%
%TF.SameCoordinates,Original*%
%TF.FileFunction,Soldermask,Top*%
%TF.FilePolarity,Negative*%
%FSLAX46Y46*%
G04 Gerber Fmt 4.6, Leading zero omitted, Abs format (unit mm)*
G04 Created by KiCad (PCBNEW 9.0.7) date 2026-02-18 13:17:12*
%MOMM*%
%LPD*%
G01*
G04 APERTURE LIST*
G04 Aperture macros list*
%AMRoundRect*
0 Rectangle with rounded corners*
0 $1 Rounding radius*
0 $2 $3 $4 $5 $6 $7 $8 $9 X,Y pos of 4 corners*
0 Add a 4 corners polygon primitive as box body*
4,1,4,$2,$3,$4,$5,$6,$7,$8,$9,$2,$3,0*
0 Add four circle primitives for the rounded corners*
1,1,$1+$1,$2,$3*
1,1,$1+$1,$4,$5*
1,1,$1+$1,$6,$7*
1,1,$1+$1,$8,$9*
0 Add four rect primitives between the rounded corners*
20,1,$1+$1,$2,$3,$4,$5,0*
20,1,$1+$1,$4,$5,$6,$7,0*
20,1,$1+$1,$6,$7,$8,$9,0*
20,1,$1+$1,$8,$9,$2,$3,0*%
G04 Aperture macros list end*
%ADD10R,1.700000X1.700000*%
%ADD11C,1.700000*%
%ADD12C,2.000000*%
%ADD13RoundRect,0.135000X0.135000X0.185000X-0.135000X0.185000X-0.135000X-0.185000X0.135000X-0.185000X0*%
%ADD14RoundRect,0.147500X-0.147500X-0.172500X0.147500X-0.172500X0.147500X0.172500X-0.147500X0.172500X0*%
%ADD15C,3.175000*%
%TA.AperFunction,Profile*%
%ADD16C,0.050000*%
%TD*%
G04 APERTURE END LIST*
D10*
%TO.C,J6*%
X121800000Y-86010000D03*
D11*
X121800000Y-88550000D03*
%TD*%
D12*
%TO.C,TP1*%
X169357220Y-101526800D03*
%TD*%
D13*
%TO.C,R3*%
X168531000Y-94390733D03*
X167511000Y-94390733D03*
%TD*%
D10*
%TO.C,J4*%
X163075000Y-78050000D03*
D11*
X165615000Y-78050000D03*
X168155000Y-78050000D03*
%TD*%
D14*
%TO.C,D3*%
X165123000Y-94390733D03*
X166093000Y-94390733D03*
%TD*%
D13*
%TO.C,R4*%
X168531000Y-98925000D03*
X167511000Y-98925000D03*
%TD*%
%TO.C,R1*%
X168531000Y-85322200D03*
X167511000Y-85322200D03*
%TD*%
D14*
%TO.C,D4*%
X165123000Y-98925000D03*
X166093000Y-98925000D03*
%TD*%
%TO.C,D2*%
X165123000Y-89875000D03*
X166093000Y-89875000D03*
%TD*%
D10*
%TO.C,J7*%
X121800000Y-94100000D03*
D11*
X121800000Y-96640000D03*
%TD*%
D10*
%TO.C,J5*%
X127000000Y-78050000D03*
D11*
X129540000Y-78050000D03*
X132080000Y-78050000D03*
%TD*%
D14*
%TO.C,D1*%
X165123000Y-85322200D03*
X166093000Y-85322200D03*
%TD*%
D13*
%TO.C,R2*%
X168531000Y-89875000D03*
X167511000Y-89875000D03*
%TD*%
D12*
%TO.C,TP2*%
X169375000Y-81152540D03*
%TD*%
D15*
%TO.C,J1*%
X173042800Y-104301100D03*
X173042800Y-78355000D03*
X122207240Y-104301100D03*
X120563860Y-76551600D03*
%TD*%
D16*
X175180000Y-76275000D02*
X175180000Y-106385000D01*
X120000000Y-76275000D02*
X175180000Y-76275000D01*
X120000000Y-76275000D02*
X120000000Y-106385000D01*
X120000000Y-106385000D02*
X175180000Y-106385000D01*
M02*
