%TF.GenerationSoftware,KiCad,Pcbnew,9.0.7*%
%TF.CreationDate,2026-02-18T13:17:12-07:00*%
%TF.ProjectId,AS_1471_Dash,41535f31-3437-4315-9f44-6173682e6b69,rev?*%
%TF.SameCoordinates,Original*%
%TF.FileFunction,Legend,Top*%
%TF.FilePolarity,Positive*%
%FSLAX46Y46*%
G04 Gerber Fmt 4.6, Leading zero omitted, Abs format (unit mm)*
G04 Created by KiCad (PCBNEW 9.0.7) date 2026-02-18 13:17:12*
%MOMM*%
%LPD*%
G01*
G04 APERTURE LIST*
%ADD10C,0.127000*%
%ADD11C,0.177800*%
%ADD12C,0.101600*%
%ADD13C,0.120000*%
%ADD14C,0.100000*%
%TA.AperFunction,Profile*%
%ADD15C,0.050000*%
%TD*%
G04 APERTURE END LIST*
D10*
X120254833Y-83490665D02*
X120254833Y-84210332D01*
X120254833Y-84210332D02*
X120297167Y-84294998D01*
X120297167Y-84294998D02*
X120339500Y-84337332D01*
X120339500Y-84337332D02*
X120424167Y-84379665D01*
X120424167Y-84379665D02*
X120593500Y-84379665D01*
X120593500Y-84379665D02*
X120678167Y-84337332D01*
X120678167Y-84337332D02*
X120720500Y-84294998D01*
X120720500Y-84294998D02*
X120762833Y-84210332D01*
X120762833Y-84210332D02*
X120762833Y-83490665D01*
X121143833Y-84337332D02*
X121270833Y-84379665D01*
X121270833Y-84379665D02*
X121482500Y-84379665D01*
X121482500Y-84379665D02*
X121567166Y-84337332D01*
X121567166Y-84337332D02*
X121609500Y-84294998D01*
X121609500Y-84294998D02*
X121651833Y-84210332D01*
X121651833Y-84210332D02*
X121651833Y-84125665D01*
X121651833Y-84125665D02*
X121609500Y-84040998D01*
X121609500Y-84040998D02*
X121567166Y-83998665D01*
X121567166Y-83998665D02*
X121482500Y-83956332D01*
X121482500Y-83956332D02*
X121313166Y-83913998D01*
X121313166Y-83913998D02*
X121228500Y-83871665D01*
X121228500Y-83871665D02*
X121186166Y-83829332D01*
X121186166Y-83829332D02*
X121143833Y-83744665D01*
X121143833Y-83744665D02*
X121143833Y-83659998D01*
X121143833Y-83659998D02*
X121186166Y-83575332D01*
X121186166Y-83575332D02*
X121228500Y-83532998D01*
X121228500Y-83532998D02*
X121313166Y-83490665D01*
X121313166Y-83490665D02*
X121524833Y-83490665D01*
X121524833Y-83490665D02*
X121651833Y-83532998D01*
X122329167Y-83913998D02*
X122456167Y-83956332D01*
X122456167Y-83956332D02*
X122498500Y-83998665D01*
X122498500Y-83998665D02*
X122540833Y-84083332D01*
X122540833Y-84083332D02*
X122540833Y-84210332D01*
X122540833Y-84210332D02*
X122498500Y-84294998D01*
X122498500Y-84294998D02*
X122456167Y-84337332D01*
X122456167Y-84337332D02*
X122371500Y-84379665D01*
X122371500Y-84379665D02*
X122032833Y-84379665D01*
X122032833Y-84379665D02*
X122032833Y-83490665D01*
X122032833Y-83490665D02*
X122329167Y-83490665D01*
X122329167Y-83490665D02*
X122413833Y-83532998D01*
X122413833Y-83532998D02*
X122456167Y-83575332D01*
X122456167Y-83575332D02*
X122498500Y-83659998D01*
X122498500Y-83659998D02*
X122498500Y-83744665D01*
X122498500Y-83744665D02*
X122456167Y-83829332D01*
X122456167Y-83829332D02*
X122413833Y-83871665D01*
X122413833Y-83871665D02*
X122329167Y-83913998D01*
X122329167Y-83913998D02*
X122032833Y-83913998D01*
X122879500Y-83575332D02*
X122921833Y-83532998D01*
X122921833Y-83532998D02*
X123006500Y-83490665D01*
X123006500Y-83490665D02*
X123218167Y-83490665D01*
X123218167Y-83490665D02*
X123302833Y-83532998D01*
X123302833Y-83532998D02*
X123345167Y-83575332D01*
X123345167Y-83575332D02*
X123387500Y-83659998D01*
X123387500Y-83659998D02*
X123387500Y-83744665D01*
X123387500Y-83744665D02*
X123345167Y-83871665D01*
X123345167Y-83871665D02*
X122837167Y-84379665D01*
X122837167Y-84379665D02*
X123387500Y-84379665D01*
X120229833Y-98190665D02*
X120229833Y-98910332D01*
X120229833Y-98910332D02*
X120272167Y-98994998D01*
X120272167Y-98994998D02*
X120314500Y-99037332D01*
X120314500Y-99037332D02*
X120399167Y-99079665D01*
X120399167Y-99079665D02*
X120568500Y-99079665D01*
X120568500Y-99079665D02*
X120653167Y-99037332D01*
X120653167Y-99037332D02*
X120695500Y-98994998D01*
X120695500Y-98994998D02*
X120737833Y-98910332D01*
X120737833Y-98910332D02*
X120737833Y-98190665D01*
X121118833Y-99037332D02*
X121245833Y-99079665D01*
X121245833Y-99079665D02*
X121457500Y-99079665D01*
X121457500Y-99079665D02*
X121542166Y-99037332D01*
X121542166Y-99037332D02*
X121584500Y-98994998D01*
X121584500Y-98994998D02*
X121626833Y-98910332D01*
X121626833Y-98910332D02*
X121626833Y-98825665D01*
X121626833Y-98825665D02*
X121584500Y-98740998D01*
X121584500Y-98740998D02*
X121542166Y-98698665D01*
X121542166Y-98698665D02*
X121457500Y-98656332D01*
X121457500Y-98656332D02*
X121288166Y-98613998D01*
X121288166Y-98613998D02*
X121203500Y-98571665D01*
X121203500Y-98571665D02*
X121161166Y-98529332D01*
X121161166Y-98529332D02*
X121118833Y-98444665D01*
X121118833Y-98444665D02*
X121118833Y-98359998D01*
X121118833Y-98359998D02*
X121161166Y-98275332D01*
X121161166Y-98275332D02*
X121203500Y-98232998D01*
X121203500Y-98232998D02*
X121288166Y-98190665D01*
X121288166Y-98190665D02*
X121499833Y-98190665D01*
X121499833Y-98190665D02*
X121626833Y-98232998D01*
X122304167Y-98613998D02*
X122431167Y-98656332D01*
X122431167Y-98656332D02*
X122473500Y-98698665D01*
X122473500Y-98698665D02*
X122515833Y-98783332D01*
X122515833Y-98783332D02*
X122515833Y-98910332D01*
X122515833Y-98910332D02*
X122473500Y-98994998D01*
X122473500Y-98994998D02*
X122431167Y-99037332D01*
X122431167Y-99037332D02*
X122346500Y-99079665D01*
X122346500Y-99079665D02*
X122007833Y-99079665D01*
X122007833Y-99079665D02*
X122007833Y-98190665D01*
X122007833Y-98190665D02*
X122304167Y-98190665D01*
X122304167Y-98190665D02*
X122388833Y-98232998D01*
X122388833Y-98232998D02*
X122431167Y-98275332D01*
X122431167Y-98275332D02*
X122473500Y-98359998D01*
X122473500Y-98359998D02*
X122473500Y-98444665D01*
X122473500Y-98444665D02*
X122431167Y-98529332D01*
X122431167Y-98529332D02*
X122388833Y-98571665D01*
X122388833Y-98571665D02*
X122304167Y-98613998D01*
X122304167Y-98613998D02*
X122007833Y-98613998D01*
X123362500Y-99079665D02*
X122854500Y-99079665D01*
X123108500Y-99079665D02*
X123108500Y-98190665D01*
X123108500Y-98190665D02*
X123023833Y-98317665D01*
X123023833Y-98317665D02*
X122939167Y-98402332D01*
X122939167Y-98402332D02*
X122854500Y-98444665D01*
D11*
X170830356Y-81902332D02*
X170788023Y-81986999D01*
X170788023Y-81986999D02*
X170788023Y-82113999D01*
X170788023Y-82113999D02*
X170830356Y-82240999D01*
X170830356Y-82240999D02*
X170915023Y-82325666D01*
X170915023Y-82325666D02*
X170999690Y-82367999D01*
X170999690Y-82367999D02*
X171169023Y-82410332D01*
X171169023Y-82410332D02*
X171296023Y-82410332D01*
X171296023Y-82410332D02*
X171465356Y-82367999D01*
X171465356Y-82367999D02*
X171550023Y-82325666D01*
X171550023Y-82325666D02*
X171634690Y-82240999D01*
X171634690Y-82240999D02*
X171677023Y-82113999D01*
X171677023Y-82113999D02*
X171677023Y-82029332D01*
X171677023Y-82029332D02*
X171634690Y-81902332D01*
X171634690Y-81902332D02*
X171592356Y-81859999D01*
X171592356Y-81859999D02*
X171296023Y-81859999D01*
X171296023Y-81859999D02*
X171296023Y-82029332D01*
X171677023Y-81478999D02*
X170788023Y-81478999D01*
X170788023Y-81478999D02*
X171677023Y-80970999D01*
X171677023Y-80970999D02*
X170788023Y-80970999D01*
X171677023Y-80547666D02*
X170788023Y-80547666D01*
X170788023Y-80547666D02*
X170788023Y-80335999D01*
X170788023Y-80335999D02*
X170830356Y-80208999D01*
X170830356Y-80208999D02*
X170915023Y-80124333D01*
X170915023Y-80124333D02*
X170999690Y-80081999D01*
X170999690Y-80081999D02*
X171169023Y-80039666D01*
X171169023Y-80039666D02*
X171296023Y-80039666D01*
X171296023Y-80039666D02*
X171465356Y-80081999D01*
X171465356Y-80081999D02*
X171550023Y-80124333D01*
X171550023Y-80124333D02*
X171634690Y-80208999D01*
X171634690Y-80208999D02*
X171677023Y-80335999D01*
X171677023Y-80335999D02*
X171677023Y-80547666D01*
D10*
X127256921Y-81321647D02*
X127287159Y-81230933D01*
X127287159Y-81230933D02*
X127287159Y-81079742D01*
X127287159Y-81079742D02*
X127256921Y-81019266D01*
X127256921Y-81019266D02*
X127226682Y-80989028D01*
X127226682Y-80989028D02*
X127166206Y-80958790D01*
X127166206Y-80958790D02*
X127105730Y-80958790D01*
X127105730Y-80958790D02*
X127045254Y-80989028D01*
X127045254Y-80989028D02*
X127015016Y-81019266D01*
X127015016Y-81019266D02*
X126984778Y-81079742D01*
X126984778Y-81079742D02*
X126954540Y-81200695D01*
X126954540Y-81200695D02*
X126924301Y-81261171D01*
X126924301Y-81261171D02*
X126894063Y-81291409D01*
X126894063Y-81291409D02*
X126833587Y-81321647D01*
X126833587Y-81321647D02*
X126773111Y-81321647D01*
X126773111Y-81321647D02*
X126712635Y-81291409D01*
X126712635Y-81291409D02*
X126682397Y-81261171D01*
X126682397Y-81261171D02*
X126652159Y-81200695D01*
X126652159Y-81200695D02*
X126652159Y-81049504D01*
X126652159Y-81049504D02*
X126682397Y-80958790D01*
X127287159Y-80686647D02*
X126652159Y-80686647D01*
X126652159Y-80686647D02*
X126652159Y-80535457D01*
X126652159Y-80535457D02*
X126682397Y-80444742D01*
X126682397Y-80444742D02*
X126742873Y-80384266D01*
X126742873Y-80384266D02*
X126803349Y-80354028D01*
X126803349Y-80354028D02*
X126924301Y-80323790D01*
X126924301Y-80323790D02*
X127015016Y-80323790D01*
X127015016Y-80323790D02*
X127135968Y-80354028D01*
X127135968Y-80354028D02*
X127196444Y-80384266D01*
X127196444Y-80384266D02*
X127256921Y-80444742D01*
X127256921Y-80444742D02*
X127287159Y-80535457D01*
X127287159Y-80535457D02*
X127287159Y-80686647D01*
X127105730Y-80081885D02*
X127105730Y-79779504D01*
X127287159Y-80142361D02*
X126652159Y-79930695D01*
X126652159Y-79930695D02*
X127287159Y-79719028D01*
X123359742Y-88837159D02*
X123359742Y-88202159D01*
X123359742Y-88202159D02*
X123510932Y-88202159D01*
X123510932Y-88202159D02*
X123601647Y-88232397D01*
X123601647Y-88232397D02*
X123662123Y-88292873D01*
X123662123Y-88292873D02*
X123692361Y-88353349D01*
X123692361Y-88353349D02*
X123722599Y-88474301D01*
X123722599Y-88474301D02*
X123722599Y-88565016D01*
X123722599Y-88565016D02*
X123692361Y-88685968D01*
X123692361Y-88685968D02*
X123662123Y-88746444D01*
X123662123Y-88746444D02*
X123601647Y-88806921D01*
X123601647Y-88806921D02*
X123510932Y-88837159D01*
X123510932Y-88837159D02*
X123359742Y-88837159D01*
X123994742Y-88837159D02*
X123994742Y-88202159D01*
X123994742Y-88202159D02*
X124357599Y-88837159D01*
X124357599Y-88837159D02*
X124357599Y-88202159D01*
X129796921Y-81255952D02*
X129827159Y-81165238D01*
X129827159Y-81165238D02*
X129827159Y-81014047D01*
X129827159Y-81014047D02*
X129796921Y-80953571D01*
X129796921Y-80953571D02*
X129766682Y-80923333D01*
X129766682Y-80923333D02*
X129706206Y-80893095D01*
X129706206Y-80893095D02*
X129645730Y-80893095D01*
X129645730Y-80893095D02*
X129585254Y-80923333D01*
X129585254Y-80923333D02*
X129555016Y-80953571D01*
X129555016Y-80953571D02*
X129524778Y-81014047D01*
X129524778Y-81014047D02*
X129494540Y-81135000D01*
X129494540Y-81135000D02*
X129464301Y-81195476D01*
X129464301Y-81195476D02*
X129434063Y-81225714D01*
X129434063Y-81225714D02*
X129373587Y-81255952D01*
X129373587Y-81255952D02*
X129313111Y-81255952D01*
X129313111Y-81255952D02*
X129252635Y-81225714D01*
X129252635Y-81225714D02*
X129222397Y-81195476D01*
X129222397Y-81195476D02*
X129192159Y-81135000D01*
X129192159Y-81135000D02*
X129192159Y-80983809D01*
X129192159Y-80983809D02*
X129222397Y-80893095D01*
X129766682Y-80258095D02*
X129796921Y-80288333D01*
X129796921Y-80288333D02*
X129827159Y-80379047D01*
X129827159Y-80379047D02*
X129827159Y-80439523D01*
X129827159Y-80439523D02*
X129796921Y-80530238D01*
X129796921Y-80530238D02*
X129736444Y-80590714D01*
X129736444Y-80590714D02*
X129675968Y-80620952D01*
X129675968Y-80620952D02*
X129555016Y-80651190D01*
X129555016Y-80651190D02*
X129464301Y-80651190D01*
X129464301Y-80651190D02*
X129343349Y-80620952D01*
X129343349Y-80620952D02*
X129282873Y-80590714D01*
X129282873Y-80590714D02*
X129222397Y-80530238D01*
X129222397Y-80530238D02*
X129192159Y-80439523D01*
X129192159Y-80439523D02*
X129192159Y-80379047D01*
X129192159Y-80379047D02*
X129222397Y-80288333D01*
X129222397Y-80288333D02*
X129252635Y-80258095D01*
X129827159Y-79683571D02*
X129827159Y-79985952D01*
X129827159Y-79985952D02*
X129192159Y-79985952D01*
D12*
X158165714Y-89460231D02*
X158165714Y-90077088D01*
X158165714Y-90077088D02*
X158202000Y-90149660D01*
X158202000Y-90149660D02*
X158238286Y-90185946D01*
X158238286Y-90185946D02*
X158310857Y-90222231D01*
X158310857Y-90222231D02*
X158456000Y-90222231D01*
X158456000Y-90222231D02*
X158528571Y-90185946D01*
X158528571Y-90185946D02*
X158564857Y-90149660D01*
X158564857Y-90149660D02*
X158601143Y-90077088D01*
X158601143Y-90077088D02*
X158601143Y-89460231D01*
X158927714Y-90185946D02*
X159036572Y-90222231D01*
X159036572Y-90222231D02*
X159218000Y-90222231D01*
X159218000Y-90222231D02*
X159290572Y-90185946D01*
X159290572Y-90185946D02*
X159326857Y-90149660D01*
X159326857Y-90149660D02*
X159363143Y-90077088D01*
X159363143Y-90077088D02*
X159363143Y-90004517D01*
X159363143Y-90004517D02*
X159326857Y-89931946D01*
X159326857Y-89931946D02*
X159290572Y-89895660D01*
X159290572Y-89895660D02*
X159218000Y-89859374D01*
X159218000Y-89859374D02*
X159072857Y-89823088D01*
X159072857Y-89823088D02*
X159000286Y-89786803D01*
X159000286Y-89786803D02*
X158964000Y-89750517D01*
X158964000Y-89750517D02*
X158927714Y-89677946D01*
X158927714Y-89677946D02*
X158927714Y-89605374D01*
X158927714Y-89605374D02*
X158964000Y-89532803D01*
X158964000Y-89532803D02*
X159000286Y-89496517D01*
X159000286Y-89496517D02*
X159072857Y-89460231D01*
X159072857Y-89460231D02*
X159254286Y-89460231D01*
X159254286Y-89460231D02*
X159363143Y-89496517D01*
X159943714Y-89823088D02*
X160052571Y-89859374D01*
X160052571Y-89859374D02*
X160088857Y-89895660D01*
X160088857Y-89895660D02*
X160125143Y-89968231D01*
X160125143Y-89968231D02*
X160125143Y-90077088D01*
X160125143Y-90077088D02*
X160088857Y-90149660D01*
X160088857Y-90149660D02*
X160052571Y-90185946D01*
X160052571Y-90185946D02*
X159980000Y-90222231D01*
X159980000Y-90222231D02*
X159689714Y-90222231D01*
X159689714Y-90222231D02*
X159689714Y-89460231D01*
X159689714Y-89460231D02*
X159943714Y-89460231D01*
X159943714Y-89460231D02*
X160016286Y-89496517D01*
X160016286Y-89496517D02*
X160052571Y-89532803D01*
X160052571Y-89532803D02*
X160088857Y-89605374D01*
X160088857Y-89605374D02*
X160088857Y-89677946D01*
X160088857Y-89677946D02*
X160052571Y-89750517D01*
X160052571Y-89750517D02*
X160016286Y-89786803D01*
X160016286Y-89786803D02*
X159943714Y-89823088D01*
X159943714Y-89823088D02*
X159689714Y-89823088D01*
X160415428Y-89532803D02*
X160451714Y-89496517D01*
X160451714Y-89496517D02*
X160524286Y-89460231D01*
X160524286Y-89460231D02*
X160705714Y-89460231D01*
X160705714Y-89460231D02*
X160778286Y-89496517D01*
X160778286Y-89496517D02*
X160814571Y-89532803D01*
X160814571Y-89532803D02*
X160850857Y-89605374D01*
X160850857Y-89605374D02*
X160850857Y-89677946D01*
X160850857Y-89677946D02*
X160814571Y-89786803D01*
X160814571Y-89786803D02*
X160379143Y-90222231D01*
X160379143Y-90222231D02*
X160850857Y-90222231D01*
X160996000Y-90294803D02*
X161576571Y-90294803D01*
X161649142Y-89460231D02*
X161903142Y-90222231D01*
X161903142Y-90222231D02*
X162157142Y-89460231D01*
X162665142Y-89823088D02*
X162773999Y-89859374D01*
X162773999Y-89859374D02*
X162810285Y-89895660D01*
X162810285Y-89895660D02*
X162846571Y-89968231D01*
X162846571Y-89968231D02*
X162846571Y-90077088D01*
X162846571Y-90077088D02*
X162810285Y-90149660D01*
X162810285Y-90149660D02*
X162773999Y-90185946D01*
X162773999Y-90185946D02*
X162701428Y-90222231D01*
X162701428Y-90222231D02*
X162411142Y-90222231D01*
X162411142Y-90222231D02*
X162411142Y-89460231D01*
X162411142Y-89460231D02*
X162665142Y-89460231D01*
X162665142Y-89460231D02*
X162737714Y-89496517D01*
X162737714Y-89496517D02*
X162773999Y-89532803D01*
X162773999Y-89532803D02*
X162810285Y-89605374D01*
X162810285Y-89605374D02*
X162810285Y-89677946D01*
X162810285Y-89677946D02*
X162773999Y-89750517D01*
X162773999Y-89750517D02*
X162737714Y-89786803D01*
X162737714Y-89786803D02*
X162665142Y-89823088D01*
X162665142Y-89823088D02*
X162411142Y-89823088D01*
X163173142Y-89460231D02*
X163173142Y-90077088D01*
X163173142Y-90077088D02*
X163209428Y-90149660D01*
X163209428Y-90149660D02*
X163245714Y-90185946D01*
X163245714Y-90185946D02*
X163318285Y-90222231D01*
X163318285Y-90222231D02*
X163463428Y-90222231D01*
X163463428Y-90222231D02*
X163535999Y-90185946D01*
X163535999Y-90185946D02*
X163572285Y-90149660D01*
X163572285Y-90149660D02*
X163608571Y-90077088D01*
X163608571Y-90077088D02*
X163608571Y-89460231D01*
X163935142Y-90185946D02*
X164044000Y-90222231D01*
X164044000Y-90222231D02*
X164225428Y-90222231D01*
X164225428Y-90222231D02*
X164298000Y-90185946D01*
X164298000Y-90185946D02*
X164334285Y-90149660D01*
X164334285Y-90149660D02*
X164370571Y-90077088D01*
X164370571Y-90077088D02*
X164370571Y-90004517D01*
X164370571Y-90004517D02*
X164334285Y-89931946D01*
X164334285Y-89931946D02*
X164298000Y-89895660D01*
X164298000Y-89895660D02*
X164225428Y-89859374D01*
X164225428Y-89859374D02*
X164080285Y-89823088D01*
X164080285Y-89823088D02*
X164007714Y-89786803D01*
X164007714Y-89786803D02*
X163971428Y-89750517D01*
X163971428Y-89750517D02*
X163935142Y-89677946D01*
X163935142Y-89677946D02*
X163935142Y-89605374D01*
X163935142Y-89605374D02*
X163971428Y-89532803D01*
X163971428Y-89532803D02*
X164007714Y-89496517D01*
X164007714Y-89496517D02*
X164080285Y-89460231D01*
X164080285Y-89460231D02*
X164261714Y-89460231D01*
X164261714Y-89460231D02*
X164370571Y-89496517D01*
D10*
X123409742Y-96927159D02*
X123409742Y-96292159D01*
X123409742Y-96292159D02*
X123560932Y-96292159D01*
X123560932Y-96292159D02*
X123651647Y-96322397D01*
X123651647Y-96322397D02*
X123712123Y-96382873D01*
X123712123Y-96382873D02*
X123742361Y-96443349D01*
X123742361Y-96443349D02*
X123772599Y-96564301D01*
X123772599Y-96564301D02*
X123772599Y-96655016D01*
X123772599Y-96655016D02*
X123742361Y-96775968D01*
X123742361Y-96775968D02*
X123712123Y-96836444D01*
X123712123Y-96836444D02*
X123651647Y-96896921D01*
X123651647Y-96896921D02*
X123560932Y-96927159D01*
X123560932Y-96927159D02*
X123409742Y-96927159D01*
X124044742Y-96927159D02*
X124044742Y-96292159D01*
X124044742Y-96292159D02*
X124407599Y-96927159D01*
X124407599Y-96927159D02*
X124407599Y-96292159D01*
D12*
X158769715Y-84907431D02*
X159023715Y-85669431D01*
X159023715Y-85669431D02*
X159277715Y-84907431D01*
X159967144Y-85596860D02*
X159930858Y-85633146D01*
X159930858Y-85633146D02*
X159822001Y-85669431D01*
X159822001Y-85669431D02*
X159749429Y-85669431D01*
X159749429Y-85669431D02*
X159640572Y-85633146D01*
X159640572Y-85633146D02*
X159568001Y-85560574D01*
X159568001Y-85560574D02*
X159531715Y-85488003D01*
X159531715Y-85488003D02*
X159495429Y-85342860D01*
X159495429Y-85342860D02*
X159495429Y-85234003D01*
X159495429Y-85234003D02*
X159531715Y-85088860D01*
X159531715Y-85088860D02*
X159568001Y-85016288D01*
X159568001Y-85016288D02*
X159640572Y-84943717D01*
X159640572Y-84943717D02*
X159749429Y-84907431D01*
X159749429Y-84907431D02*
X159822001Y-84907431D01*
X159822001Y-84907431D02*
X159930858Y-84943717D01*
X159930858Y-84943717D02*
X159967144Y-84980003D01*
X160729144Y-85596860D02*
X160692858Y-85633146D01*
X160692858Y-85633146D02*
X160584001Y-85669431D01*
X160584001Y-85669431D02*
X160511429Y-85669431D01*
X160511429Y-85669431D02*
X160402572Y-85633146D01*
X160402572Y-85633146D02*
X160330001Y-85560574D01*
X160330001Y-85560574D02*
X160293715Y-85488003D01*
X160293715Y-85488003D02*
X160257429Y-85342860D01*
X160257429Y-85342860D02*
X160257429Y-85234003D01*
X160257429Y-85234003D02*
X160293715Y-85088860D01*
X160293715Y-85088860D02*
X160330001Y-85016288D01*
X160330001Y-85016288D02*
X160402572Y-84943717D01*
X160402572Y-84943717D02*
X160511429Y-84907431D01*
X160511429Y-84907431D02*
X160584001Y-84907431D01*
X160584001Y-84907431D02*
X160692858Y-84943717D01*
X160692858Y-84943717D02*
X160729144Y-84980003D01*
X160874287Y-85742003D02*
X161454858Y-85742003D01*
X161636286Y-85669431D02*
X161636286Y-84907431D01*
X161636286Y-84907431D02*
X161890286Y-85451717D01*
X161890286Y-85451717D02*
X162144286Y-84907431D01*
X162144286Y-84907431D02*
X162144286Y-85669431D01*
X162434572Y-84907431D02*
X162942572Y-85669431D01*
X162942572Y-84907431D02*
X162434572Y-85669431D01*
X163269143Y-85669431D02*
X163414286Y-85669431D01*
X163414286Y-85669431D02*
X163486857Y-85633146D01*
X163486857Y-85633146D02*
X163523143Y-85596860D01*
X163523143Y-85596860D02*
X163595714Y-85488003D01*
X163595714Y-85488003D02*
X163632000Y-85342860D01*
X163632000Y-85342860D02*
X163632000Y-85052574D01*
X163632000Y-85052574D02*
X163595714Y-84980003D01*
X163595714Y-84980003D02*
X163559429Y-84943717D01*
X163559429Y-84943717D02*
X163486857Y-84907431D01*
X163486857Y-84907431D02*
X163341714Y-84907431D01*
X163341714Y-84907431D02*
X163269143Y-84943717D01*
X163269143Y-84943717D02*
X163232857Y-84980003D01*
X163232857Y-84980003D02*
X163196571Y-85052574D01*
X163196571Y-85052574D02*
X163196571Y-85234003D01*
X163196571Y-85234003D02*
X163232857Y-85306574D01*
X163232857Y-85306574D02*
X163269143Y-85342860D01*
X163269143Y-85342860D02*
X163341714Y-85379146D01*
X163341714Y-85379146D02*
X163486857Y-85379146D01*
X163486857Y-85379146D02*
X163559429Y-85342860D01*
X163559429Y-85342860D02*
X163595714Y-85306574D01*
X163595714Y-85306574D02*
X163632000Y-85234003D01*
X164321428Y-84907431D02*
X163958571Y-84907431D01*
X163958571Y-84907431D02*
X163922285Y-85270288D01*
X163922285Y-85270288D02*
X163958571Y-85234003D01*
X163958571Y-85234003D02*
X164031143Y-85197717D01*
X164031143Y-85197717D02*
X164212571Y-85197717D01*
X164212571Y-85197717D02*
X164285143Y-85234003D01*
X164285143Y-85234003D02*
X164321428Y-85270288D01*
X164321428Y-85270288D02*
X164357714Y-85342860D01*
X164357714Y-85342860D02*
X164357714Y-85524288D01*
X164357714Y-85524288D02*
X164321428Y-85596860D01*
X164321428Y-85596860D02*
X164285143Y-85633146D01*
X164285143Y-85633146D02*
X164212571Y-85669431D01*
X164212571Y-85669431D02*
X164031143Y-85669431D01*
X164031143Y-85669431D02*
X163958571Y-85633146D01*
X163958571Y-85633146D02*
X163922285Y-85596860D01*
D11*
X170763023Y-103060499D02*
X171652023Y-102764166D01*
X171652023Y-102764166D02*
X170763023Y-102467832D01*
X171186356Y-101875166D02*
X171228690Y-101748166D01*
X171228690Y-101748166D02*
X171271023Y-101705832D01*
X171271023Y-101705832D02*
X171355690Y-101663499D01*
X171355690Y-101663499D02*
X171482690Y-101663499D01*
X171482690Y-101663499D02*
X171567356Y-101705832D01*
X171567356Y-101705832D02*
X171609690Y-101748166D01*
X171609690Y-101748166D02*
X171652023Y-101832832D01*
X171652023Y-101832832D02*
X171652023Y-102171499D01*
X171652023Y-102171499D02*
X170763023Y-102171499D01*
X170763023Y-102171499D02*
X170763023Y-101875166D01*
X170763023Y-101875166D02*
X170805356Y-101790499D01*
X170805356Y-101790499D02*
X170847690Y-101748166D01*
X170847690Y-101748166D02*
X170932356Y-101705832D01*
X170932356Y-101705832D02*
X171017023Y-101705832D01*
X171017023Y-101705832D02*
X171101690Y-101748166D01*
X171101690Y-101748166D02*
X171144023Y-101790499D01*
X171144023Y-101790499D02*
X171186356Y-101875166D01*
X171186356Y-101875166D02*
X171186356Y-102171499D01*
X171398023Y-101324832D02*
X171398023Y-100901499D01*
X171652023Y-101409499D02*
X170763023Y-101113166D01*
X170763023Y-101113166D02*
X171652023Y-100816832D01*
X170763023Y-100647499D02*
X170763023Y-100139499D01*
X171652023Y-100393499D02*
X170763023Y-100393499D01*
D10*
X133733833Y-78454665D02*
X133733833Y-77565665D01*
X134114833Y-77650332D02*
X134157166Y-77607998D01*
X134157166Y-77607998D02*
X134241833Y-77565665D01*
X134241833Y-77565665D02*
X134453500Y-77565665D01*
X134453500Y-77565665D02*
X134538166Y-77607998D01*
X134538166Y-77607998D02*
X134580500Y-77650332D01*
X134580500Y-77650332D02*
X134622833Y-77734998D01*
X134622833Y-77734998D02*
X134622833Y-77819665D01*
X134622833Y-77819665D02*
X134580500Y-77946665D01*
X134580500Y-77946665D02*
X134072500Y-78454665D01*
X134072500Y-78454665D02*
X134622833Y-78454665D01*
X135511833Y-78369998D02*
X135469500Y-78412332D01*
X135469500Y-78412332D02*
X135342500Y-78454665D01*
X135342500Y-78454665D02*
X135257833Y-78454665D01*
X135257833Y-78454665D02*
X135130833Y-78412332D01*
X135130833Y-78412332D02*
X135046167Y-78327665D01*
X135046167Y-78327665D02*
X135003833Y-78242998D01*
X135003833Y-78242998D02*
X134961500Y-78073665D01*
X134961500Y-78073665D02*
X134961500Y-77946665D01*
X134961500Y-77946665D02*
X135003833Y-77777332D01*
X135003833Y-77777332D02*
X135046167Y-77692665D01*
X135046167Y-77692665D02*
X135130833Y-77607998D01*
X135130833Y-77607998D02*
X135257833Y-77565665D01*
X135257833Y-77565665D02*
X135342500Y-77565665D01*
X135342500Y-77565665D02*
X135469500Y-77607998D01*
X135469500Y-77607998D02*
X135511833Y-77650332D01*
X136358500Y-78454665D02*
X135850500Y-78454665D01*
X136104500Y-78454665D02*
X136104500Y-77565665D01*
X136104500Y-77565665D02*
X136019833Y-77692665D01*
X136019833Y-77692665D02*
X135935167Y-77777332D01*
X135935167Y-77777332D02*
X135850500Y-77819665D01*
X162727159Y-80683809D02*
X162727159Y-80320952D01*
X163362159Y-80502381D02*
X162727159Y-80502381D01*
X162727159Y-80169761D02*
X163362159Y-79746428D01*
X162727159Y-79746428D02*
X163362159Y-80169761D01*
X157708500Y-77565665D02*
X157708500Y-78285332D01*
X157708500Y-78285332D02*
X157750834Y-78369998D01*
X157750834Y-78369998D02*
X157793167Y-78412332D01*
X157793167Y-78412332D02*
X157877834Y-78454665D01*
X157877834Y-78454665D02*
X158047167Y-78454665D01*
X158047167Y-78454665D02*
X158131834Y-78412332D01*
X158131834Y-78412332D02*
X158174167Y-78369998D01*
X158174167Y-78369998D02*
X158216500Y-78285332D01*
X158216500Y-78285332D02*
X158216500Y-77565665D01*
X158597500Y-78200665D02*
X159020833Y-78200665D01*
X158512833Y-78454665D02*
X158809167Y-77565665D01*
X158809167Y-77565665D02*
X159105500Y-78454665D01*
X159909833Y-78454665D02*
X159613500Y-78031332D01*
X159401833Y-78454665D02*
X159401833Y-77565665D01*
X159401833Y-77565665D02*
X159740500Y-77565665D01*
X159740500Y-77565665D02*
X159825167Y-77607998D01*
X159825167Y-77607998D02*
X159867500Y-77650332D01*
X159867500Y-77650332D02*
X159909833Y-77734998D01*
X159909833Y-77734998D02*
X159909833Y-77861998D01*
X159909833Y-77861998D02*
X159867500Y-77946665D01*
X159867500Y-77946665D02*
X159825167Y-77988998D01*
X159825167Y-77988998D02*
X159740500Y-78031332D01*
X159740500Y-78031332D02*
X159401833Y-78031332D01*
X160163833Y-77565665D02*
X160671833Y-77565665D01*
X160417833Y-78454665D02*
X160417833Y-77565665D01*
X161433833Y-78454665D02*
X160925833Y-78454665D01*
X161179833Y-78454665D02*
X161179833Y-77565665D01*
X161179833Y-77565665D02*
X161095166Y-77692665D01*
X161095166Y-77692665D02*
X161010500Y-77777332D01*
X161010500Y-77777332D02*
X160925833Y-77819665D01*
X165912159Y-80380833D02*
X165609778Y-80592500D01*
X165912159Y-80743690D02*
X165277159Y-80743690D01*
X165277159Y-80743690D02*
X165277159Y-80501785D01*
X165277159Y-80501785D02*
X165307397Y-80441309D01*
X165307397Y-80441309D02*
X165337635Y-80411071D01*
X165337635Y-80411071D02*
X165398111Y-80380833D01*
X165398111Y-80380833D02*
X165488825Y-80380833D01*
X165488825Y-80380833D02*
X165549301Y-80411071D01*
X165549301Y-80411071D02*
X165579540Y-80441309D01*
X165579540Y-80441309D02*
X165609778Y-80501785D01*
X165609778Y-80501785D02*
X165609778Y-80743690D01*
X165277159Y-80169166D02*
X165912159Y-79745833D01*
X165277159Y-79745833D02*
X165912159Y-80169166D01*
X123359742Y-86297159D02*
X123359742Y-85662159D01*
X123359742Y-85662159D02*
X123510932Y-85662159D01*
X123510932Y-85662159D02*
X123601647Y-85692397D01*
X123601647Y-85692397D02*
X123662123Y-85752873D01*
X123662123Y-85752873D02*
X123692361Y-85813349D01*
X123692361Y-85813349D02*
X123722599Y-85934301D01*
X123722599Y-85934301D02*
X123722599Y-86025016D01*
X123722599Y-86025016D02*
X123692361Y-86145968D01*
X123692361Y-86145968D02*
X123662123Y-86206444D01*
X123662123Y-86206444D02*
X123601647Y-86266921D01*
X123601647Y-86266921D02*
X123510932Y-86297159D01*
X123510932Y-86297159D02*
X123359742Y-86297159D01*
X123994742Y-86297159D02*
X123994742Y-85662159D01*
X123994742Y-85662159D02*
X124236647Y-85662159D01*
X124236647Y-85662159D02*
X124297123Y-85692397D01*
X124297123Y-85692397D02*
X124327361Y-85722635D01*
X124327361Y-85722635D02*
X124357599Y-85783111D01*
X124357599Y-85783111D02*
X124357599Y-85873825D01*
X124357599Y-85873825D02*
X124327361Y-85934301D01*
X124327361Y-85934301D02*
X124297123Y-85964540D01*
X124297123Y-85964540D02*
X124236647Y-85994778D01*
X124236647Y-85994778D02*
X123994742Y-85994778D01*
X167432397Y-81033809D02*
X167402159Y-81094285D01*
X167402159Y-81094285D02*
X167402159Y-81184999D01*
X167402159Y-81184999D02*
X167432397Y-81275714D01*
X167432397Y-81275714D02*
X167492873Y-81336190D01*
X167492873Y-81336190D02*
X167553349Y-81366428D01*
X167553349Y-81366428D02*
X167674301Y-81396666D01*
X167674301Y-81396666D02*
X167765016Y-81396666D01*
X167765016Y-81396666D02*
X167885968Y-81366428D01*
X167885968Y-81366428D02*
X167946444Y-81336190D01*
X167946444Y-81336190D02*
X168006921Y-81275714D01*
X168006921Y-81275714D02*
X168037159Y-81184999D01*
X168037159Y-81184999D02*
X168037159Y-81124523D01*
X168037159Y-81124523D02*
X168006921Y-81033809D01*
X168006921Y-81033809D02*
X167976682Y-81003571D01*
X167976682Y-81003571D02*
X167765016Y-81003571D01*
X167765016Y-81003571D02*
X167765016Y-81124523D01*
X168037159Y-80731428D02*
X167402159Y-80731428D01*
X167402159Y-80731428D02*
X168037159Y-80368571D01*
X168037159Y-80368571D02*
X167402159Y-80368571D01*
X168037159Y-80066190D02*
X167402159Y-80066190D01*
X167402159Y-80066190D02*
X167402159Y-79915000D01*
X167402159Y-79915000D02*
X167432397Y-79824285D01*
X167432397Y-79824285D02*
X167492873Y-79763809D01*
X167492873Y-79763809D02*
X167553349Y-79733571D01*
X167553349Y-79733571D02*
X167674301Y-79703333D01*
X167674301Y-79703333D02*
X167765016Y-79703333D01*
X167765016Y-79703333D02*
X167885968Y-79733571D01*
X167885968Y-79733571D02*
X167946444Y-79763809D01*
X167946444Y-79763809D02*
X168006921Y-79824285D01*
X168006921Y-79824285D02*
X168037159Y-79915000D01*
X168037159Y-79915000D02*
X168037159Y-80066190D01*
D12*
X158165714Y-93975964D02*
X158165714Y-94592821D01*
X158165714Y-94592821D02*
X158202000Y-94665393D01*
X158202000Y-94665393D02*
X158238286Y-94701679D01*
X158238286Y-94701679D02*
X158310857Y-94737964D01*
X158310857Y-94737964D02*
X158456000Y-94737964D01*
X158456000Y-94737964D02*
X158528571Y-94701679D01*
X158528571Y-94701679D02*
X158564857Y-94665393D01*
X158564857Y-94665393D02*
X158601143Y-94592821D01*
X158601143Y-94592821D02*
X158601143Y-93975964D01*
X158927714Y-94701679D02*
X159036572Y-94737964D01*
X159036572Y-94737964D02*
X159218000Y-94737964D01*
X159218000Y-94737964D02*
X159290572Y-94701679D01*
X159290572Y-94701679D02*
X159326857Y-94665393D01*
X159326857Y-94665393D02*
X159363143Y-94592821D01*
X159363143Y-94592821D02*
X159363143Y-94520250D01*
X159363143Y-94520250D02*
X159326857Y-94447679D01*
X159326857Y-94447679D02*
X159290572Y-94411393D01*
X159290572Y-94411393D02*
X159218000Y-94375107D01*
X159218000Y-94375107D02*
X159072857Y-94338821D01*
X159072857Y-94338821D02*
X159000286Y-94302536D01*
X159000286Y-94302536D02*
X158964000Y-94266250D01*
X158964000Y-94266250D02*
X158927714Y-94193679D01*
X158927714Y-94193679D02*
X158927714Y-94121107D01*
X158927714Y-94121107D02*
X158964000Y-94048536D01*
X158964000Y-94048536D02*
X159000286Y-94012250D01*
X159000286Y-94012250D02*
X159072857Y-93975964D01*
X159072857Y-93975964D02*
X159254286Y-93975964D01*
X159254286Y-93975964D02*
X159363143Y-94012250D01*
X159943714Y-94338821D02*
X160052571Y-94375107D01*
X160052571Y-94375107D02*
X160088857Y-94411393D01*
X160088857Y-94411393D02*
X160125143Y-94483964D01*
X160125143Y-94483964D02*
X160125143Y-94592821D01*
X160125143Y-94592821D02*
X160088857Y-94665393D01*
X160088857Y-94665393D02*
X160052571Y-94701679D01*
X160052571Y-94701679D02*
X159980000Y-94737964D01*
X159980000Y-94737964D02*
X159689714Y-94737964D01*
X159689714Y-94737964D02*
X159689714Y-93975964D01*
X159689714Y-93975964D02*
X159943714Y-93975964D01*
X159943714Y-93975964D02*
X160016286Y-94012250D01*
X160016286Y-94012250D02*
X160052571Y-94048536D01*
X160052571Y-94048536D02*
X160088857Y-94121107D01*
X160088857Y-94121107D02*
X160088857Y-94193679D01*
X160088857Y-94193679D02*
X160052571Y-94266250D01*
X160052571Y-94266250D02*
X160016286Y-94302536D01*
X160016286Y-94302536D02*
X159943714Y-94338821D01*
X159943714Y-94338821D02*
X159689714Y-94338821D01*
X160850857Y-94737964D02*
X160415428Y-94737964D01*
X160633143Y-94737964D02*
X160633143Y-93975964D01*
X160633143Y-93975964D02*
X160560571Y-94084821D01*
X160560571Y-94084821D02*
X160488000Y-94157393D01*
X160488000Y-94157393D02*
X160415428Y-94193679D01*
X160996000Y-94810536D02*
X161576571Y-94810536D01*
X161649142Y-93975964D02*
X161903142Y-94737964D01*
X161903142Y-94737964D02*
X162157142Y-93975964D01*
X162665142Y-94338821D02*
X162773999Y-94375107D01*
X162773999Y-94375107D02*
X162810285Y-94411393D01*
X162810285Y-94411393D02*
X162846571Y-94483964D01*
X162846571Y-94483964D02*
X162846571Y-94592821D01*
X162846571Y-94592821D02*
X162810285Y-94665393D01*
X162810285Y-94665393D02*
X162773999Y-94701679D01*
X162773999Y-94701679D02*
X162701428Y-94737964D01*
X162701428Y-94737964D02*
X162411142Y-94737964D01*
X162411142Y-94737964D02*
X162411142Y-93975964D01*
X162411142Y-93975964D02*
X162665142Y-93975964D01*
X162665142Y-93975964D02*
X162737714Y-94012250D01*
X162737714Y-94012250D02*
X162773999Y-94048536D01*
X162773999Y-94048536D02*
X162810285Y-94121107D01*
X162810285Y-94121107D02*
X162810285Y-94193679D01*
X162810285Y-94193679D02*
X162773999Y-94266250D01*
X162773999Y-94266250D02*
X162737714Y-94302536D01*
X162737714Y-94302536D02*
X162665142Y-94338821D01*
X162665142Y-94338821D02*
X162411142Y-94338821D01*
X163173142Y-93975964D02*
X163173142Y-94592821D01*
X163173142Y-94592821D02*
X163209428Y-94665393D01*
X163209428Y-94665393D02*
X163245714Y-94701679D01*
X163245714Y-94701679D02*
X163318285Y-94737964D01*
X163318285Y-94737964D02*
X163463428Y-94737964D01*
X163463428Y-94737964D02*
X163535999Y-94701679D01*
X163535999Y-94701679D02*
X163572285Y-94665393D01*
X163572285Y-94665393D02*
X163608571Y-94592821D01*
X163608571Y-94592821D02*
X163608571Y-93975964D01*
X163935142Y-94701679D02*
X164044000Y-94737964D01*
X164044000Y-94737964D02*
X164225428Y-94737964D01*
X164225428Y-94737964D02*
X164298000Y-94701679D01*
X164298000Y-94701679D02*
X164334285Y-94665393D01*
X164334285Y-94665393D02*
X164370571Y-94592821D01*
X164370571Y-94592821D02*
X164370571Y-94520250D01*
X164370571Y-94520250D02*
X164334285Y-94447679D01*
X164334285Y-94447679D02*
X164298000Y-94411393D01*
X164298000Y-94411393D02*
X164225428Y-94375107D01*
X164225428Y-94375107D02*
X164080285Y-94338821D01*
X164080285Y-94338821D02*
X164007714Y-94302536D01*
X164007714Y-94302536D02*
X163971428Y-94266250D01*
X163971428Y-94266250D02*
X163935142Y-94193679D01*
X163935142Y-94193679D02*
X163935142Y-94121107D01*
X163935142Y-94121107D02*
X163971428Y-94048536D01*
X163971428Y-94048536D02*
X164007714Y-94012250D01*
X164007714Y-94012250D02*
X164080285Y-93975964D01*
X164080285Y-93975964D02*
X164261714Y-93975964D01*
X164261714Y-93975964D02*
X164370571Y-94012250D01*
D10*
X123409742Y-94387159D02*
X123409742Y-93752159D01*
X123409742Y-93752159D02*
X123560932Y-93752159D01*
X123560932Y-93752159D02*
X123651647Y-93782397D01*
X123651647Y-93782397D02*
X123712123Y-93842873D01*
X123712123Y-93842873D02*
X123742361Y-93903349D01*
X123742361Y-93903349D02*
X123772599Y-94024301D01*
X123772599Y-94024301D02*
X123772599Y-94115016D01*
X123772599Y-94115016D02*
X123742361Y-94235968D01*
X123742361Y-94235968D02*
X123712123Y-94296444D01*
X123712123Y-94296444D02*
X123651647Y-94356921D01*
X123651647Y-94356921D02*
X123560932Y-94387159D01*
X123560932Y-94387159D02*
X123409742Y-94387159D01*
X124044742Y-94387159D02*
X124044742Y-93752159D01*
X124044742Y-93752159D02*
X124286647Y-93752159D01*
X124286647Y-93752159D02*
X124347123Y-93782397D01*
X124347123Y-93782397D02*
X124377361Y-93812635D01*
X124377361Y-93812635D02*
X124407599Y-93873111D01*
X124407599Y-93873111D02*
X124407599Y-93963825D01*
X124407599Y-93963825D02*
X124377361Y-94024301D01*
X124377361Y-94024301D02*
X124347123Y-94054540D01*
X124347123Y-94054540D02*
X124286647Y-94084778D01*
X124286647Y-94084778D02*
X124044742Y-94084778D01*
D12*
X161898143Y-98510231D02*
X162152143Y-99272231D01*
X162152143Y-99272231D02*
X162406143Y-98510231D01*
X162914143Y-98873088D02*
X163023000Y-98909374D01*
X163023000Y-98909374D02*
X163059286Y-98945660D01*
X163059286Y-98945660D02*
X163095572Y-99018231D01*
X163095572Y-99018231D02*
X163095572Y-99127088D01*
X163095572Y-99127088D02*
X163059286Y-99199660D01*
X163059286Y-99199660D02*
X163023000Y-99235946D01*
X163023000Y-99235946D02*
X162950429Y-99272231D01*
X162950429Y-99272231D02*
X162660143Y-99272231D01*
X162660143Y-99272231D02*
X162660143Y-98510231D01*
X162660143Y-98510231D02*
X162914143Y-98510231D01*
X162914143Y-98510231D02*
X162986715Y-98546517D01*
X162986715Y-98546517D02*
X163023000Y-98582803D01*
X163023000Y-98582803D02*
X163059286Y-98655374D01*
X163059286Y-98655374D02*
X163059286Y-98727946D01*
X163059286Y-98727946D02*
X163023000Y-98800517D01*
X163023000Y-98800517D02*
X162986715Y-98836803D01*
X162986715Y-98836803D02*
X162914143Y-98873088D01*
X162914143Y-98873088D02*
X162660143Y-98873088D01*
X163385857Y-99054517D02*
X163748715Y-99054517D01*
X163313286Y-99272231D02*
X163567286Y-98510231D01*
X163567286Y-98510231D02*
X163821286Y-99272231D01*
X163966429Y-98510231D02*
X164401858Y-98510231D01*
X164184143Y-99272231D02*
X164184143Y-98510231D01*
D10*
X131762397Y-81008809D02*
X131732159Y-81069285D01*
X131732159Y-81069285D02*
X131732159Y-81159999D01*
X131732159Y-81159999D02*
X131762397Y-81250714D01*
X131762397Y-81250714D02*
X131822873Y-81311190D01*
X131822873Y-81311190D02*
X131883349Y-81341428D01*
X131883349Y-81341428D02*
X132004301Y-81371666D01*
X132004301Y-81371666D02*
X132095016Y-81371666D01*
X132095016Y-81371666D02*
X132215968Y-81341428D01*
X132215968Y-81341428D02*
X132276444Y-81311190D01*
X132276444Y-81311190D02*
X132336921Y-81250714D01*
X132336921Y-81250714D02*
X132367159Y-81159999D01*
X132367159Y-81159999D02*
X132367159Y-81099523D01*
X132367159Y-81099523D02*
X132336921Y-81008809D01*
X132336921Y-81008809D02*
X132306682Y-80978571D01*
X132306682Y-80978571D02*
X132095016Y-80978571D01*
X132095016Y-80978571D02*
X132095016Y-81099523D01*
X132367159Y-80706428D02*
X131732159Y-80706428D01*
X131732159Y-80706428D02*
X132367159Y-80343571D01*
X132367159Y-80343571D02*
X131732159Y-80343571D01*
X132367159Y-80041190D02*
X131732159Y-80041190D01*
X131732159Y-80041190D02*
X131732159Y-79890000D01*
X131732159Y-79890000D02*
X131762397Y-79799285D01*
X131762397Y-79799285D02*
X131822873Y-79738809D01*
X131822873Y-79738809D02*
X131883349Y-79708571D01*
X131883349Y-79708571D02*
X132004301Y-79678333D01*
X132004301Y-79678333D02*
X132095016Y-79678333D01*
X132095016Y-79678333D02*
X132215968Y-79708571D01*
X132215968Y-79708571D02*
X132276444Y-79738809D01*
X132276444Y-79738809D02*
X132336921Y-79799285D01*
X132336921Y-79799285D02*
X132367159Y-79890000D01*
X132367159Y-79890000D02*
X132367159Y-80041190D01*
X167907166Y-93787159D02*
X167695499Y-93484778D01*
X167544309Y-93787159D02*
X167544309Y-93152159D01*
X167544309Y-93152159D02*
X167786214Y-93152159D01*
X167786214Y-93152159D02*
X167846690Y-93182397D01*
X167846690Y-93182397D02*
X167876928Y-93212635D01*
X167876928Y-93212635D02*
X167907166Y-93273111D01*
X167907166Y-93273111D02*
X167907166Y-93363825D01*
X167907166Y-93363825D02*
X167876928Y-93424301D01*
X167876928Y-93424301D02*
X167846690Y-93454540D01*
X167846690Y-93454540D02*
X167786214Y-93484778D01*
X167786214Y-93484778D02*
X167544309Y-93484778D01*
X168118833Y-93152159D02*
X168511928Y-93152159D01*
X168511928Y-93152159D02*
X168300261Y-93394063D01*
X168300261Y-93394063D02*
X168390976Y-93394063D01*
X168390976Y-93394063D02*
X168451452Y-93424301D01*
X168451452Y-93424301D02*
X168481690Y-93454540D01*
X168481690Y-93454540D02*
X168511928Y-93515016D01*
X168511928Y-93515016D02*
X168511928Y-93666206D01*
X168511928Y-93666206D02*
X168481690Y-93726682D01*
X168481690Y-93726682D02*
X168451452Y-93756921D01*
X168451452Y-93756921D02*
X168390976Y-93787159D01*
X168390976Y-93787159D02*
X168209547Y-93787159D01*
X168209547Y-93787159D02*
X168149071Y-93756921D01*
X168149071Y-93756921D02*
X168118833Y-93726682D01*
X165143309Y-93814292D02*
X165143309Y-93179292D01*
X165143309Y-93179292D02*
X165294499Y-93179292D01*
X165294499Y-93179292D02*
X165385214Y-93209530D01*
X165385214Y-93209530D02*
X165445690Y-93270006D01*
X165445690Y-93270006D02*
X165475928Y-93330482D01*
X165475928Y-93330482D02*
X165506166Y-93451434D01*
X165506166Y-93451434D02*
X165506166Y-93542149D01*
X165506166Y-93542149D02*
X165475928Y-93663101D01*
X165475928Y-93663101D02*
X165445690Y-93723577D01*
X165445690Y-93723577D02*
X165385214Y-93784054D01*
X165385214Y-93784054D02*
X165294499Y-93814292D01*
X165294499Y-93814292D02*
X165143309Y-93814292D01*
X165717833Y-93179292D02*
X166110928Y-93179292D01*
X166110928Y-93179292D02*
X165899261Y-93421196D01*
X165899261Y-93421196D02*
X165989976Y-93421196D01*
X165989976Y-93421196D02*
X166050452Y-93451434D01*
X166050452Y-93451434D02*
X166080690Y-93481673D01*
X166080690Y-93481673D02*
X166110928Y-93542149D01*
X166110928Y-93542149D02*
X166110928Y-93693339D01*
X166110928Y-93693339D02*
X166080690Y-93753815D01*
X166080690Y-93753815D02*
X166050452Y-93784054D01*
X166050452Y-93784054D02*
X165989976Y-93814292D01*
X165989976Y-93814292D02*
X165808547Y-93814292D01*
X165808547Y-93814292D02*
X165748071Y-93784054D01*
X165748071Y-93784054D02*
X165717833Y-93753815D01*
X167832166Y-98337159D02*
X167620499Y-98034778D01*
X167469309Y-98337159D02*
X167469309Y-97702159D01*
X167469309Y-97702159D02*
X167711214Y-97702159D01*
X167711214Y-97702159D02*
X167771690Y-97732397D01*
X167771690Y-97732397D02*
X167801928Y-97762635D01*
X167801928Y-97762635D02*
X167832166Y-97823111D01*
X167832166Y-97823111D02*
X167832166Y-97913825D01*
X167832166Y-97913825D02*
X167801928Y-97974301D01*
X167801928Y-97974301D02*
X167771690Y-98004540D01*
X167771690Y-98004540D02*
X167711214Y-98034778D01*
X167711214Y-98034778D02*
X167469309Y-98034778D01*
X168376452Y-97913825D02*
X168376452Y-98337159D01*
X168225261Y-97671921D02*
X168074071Y-98125492D01*
X168074071Y-98125492D02*
X168467166Y-98125492D01*
X167907166Y-84739390D02*
X167695499Y-84437009D01*
X167544309Y-84739390D02*
X167544309Y-84104390D01*
X167544309Y-84104390D02*
X167786214Y-84104390D01*
X167786214Y-84104390D02*
X167846690Y-84134628D01*
X167846690Y-84134628D02*
X167876928Y-84164866D01*
X167876928Y-84164866D02*
X167907166Y-84225342D01*
X167907166Y-84225342D02*
X167907166Y-84316056D01*
X167907166Y-84316056D02*
X167876928Y-84376532D01*
X167876928Y-84376532D02*
X167846690Y-84406771D01*
X167846690Y-84406771D02*
X167786214Y-84437009D01*
X167786214Y-84437009D02*
X167544309Y-84437009D01*
X168511928Y-84739390D02*
X168149071Y-84739390D01*
X168330499Y-84739390D02*
X168330499Y-84104390D01*
X168330499Y-84104390D02*
X168270023Y-84195104D01*
X168270023Y-84195104D02*
X168209547Y-84255580D01*
X168209547Y-84255580D02*
X168149071Y-84285818D01*
X165168309Y-98348559D02*
X165168309Y-97713559D01*
X165168309Y-97713559D02*
X165319499Y-97713559D01*
X165319499Y-97713559D02*
X165410214Y-97743797D01*
X165410214Y-97743797D02*
X165470690Y-97804273D01*
X165470690Y-97804273D02*
X165500928Y-97864749D01*
X165500928Y-97864749D02*
X165531166Y-97985701D01*
X165531166Y-97985701D02*
X165531166Y-98076416D01*
X165531166Y-98076416D02*
X165500928Y-98197368D01*
X165500928Y-98197368D02*
X165470690Y-98257844D01*
X165470690Y-98257844D02*
X165410214Y-98318321D01*
X165410214Y-98318321D02*
X165319499Y-98348559D01*
X165319499Y-98348559D02*
X165168309Y-98348559D01*
X166075452Y-97925225D02*
X166075452Y-98348559D01*
X165924261Y-97683321D02*
X165773071Y-98136892D01*
X165773071Y-98136892D02*
X166166166Y-98136892D01*
X165143309Y-89305692D02*
X165143309Y-88670692D01*
X165143309Y-88670692D02*
X165294499Y-88670692D01*
X165294499Y-88670692D02*
X165385214Y-88700930D01*
X165385214Y-88700930D02*
X165445690Y-88761406D01*
X165445690Y-88761406D02*
X165475928Y-88821882D01*
X165475928Y-88821882D02*
X165506166Y-88942834D01*
X165506166Y-88942834D02*
X165506166Y-89033549D01*
X165506166Y-89033549D02*
X165475928Y-89154501D01*
X165475928Y-89154501D02*
X165445690Y-89214977D01*
X165445690Y-89214977D02*
X165385214Y-89275454D01*
X165385214Y-89275454D02*
X165294499Y-89305692D01*
X165294499Y-89305692D02*
X165143309Y-89305692D01*
X165748071Y-88731168D02*
X165778309Y-88700930D01*
X165778309Y-88700930D02*
X165838785Y-88670692D01*
X165838785Y-88670692D02*
X165989976Y-88670692D01*
X165989976Y-88670692D02*
X166050452Y-88700930D01*
X166050452Y-88700930D02*
X166080690Y-88731168D01*
X166080690Y-88731168D02*
X166110928Y-88791644D01*
X166110928Y-88791644D02*
X166110928Y-88852120D01*
X166110928Y-88852120D02*
X166080690Y-88942834D01*
X166080690Y-88942834D02*
X165717833Y-89305692D01*
X165717833Y-89305692D02*
X166110928Y-89305692D01*
X165143309Y-84745759D02*
X165143309Y-84110759D01*
X165143309Y-84110759D02*
X165294499Y-84110759D01*
X165294499Y-84110759D02*
X165385214Y-84140997D01*
X165385214Y-84140997D02*
X165445690Y-84201473D01*
X165445690Y-84201473D02*
X165475928Y-84261949D01*
X165475928Y-84261949D02*
X165506166Y-84382901D01*
X165506166Y-84382901D02*
X165506166Y-84473616D01*
X165506166Y-84473616D02*
X165475928Y-84594568D01*
X165475928Y-84594568D02*
X165445690Y-84655044D01*
X165445690Y-84655044D02*
X165385214Y-84715521D01*
X165385214Y-84715521D02*
X165294499Y-84745759D01*
X165294499Y-84745759D02*
X165143309Y-84745759D01*
X166110928Y-84745759D02*
X165748071Y-84745759D01*
X165929499Y-84745759D02*
X165929499Y-84110759D01*
X165929499Y-84110759D02*
X165869023Y-84201473D01*
X165869023Y-84201473D02*
X165808547Y-84261949D01*
X165808547Y-84261949D02*
X165748071Y-84292187D01*
X167907166Y-89280692D02*
X167695499Y-88978311D01*
X167544309Y-89280692D02*
X167544309Y-88645692D01*
X167544309Y-88645692D02*
X167786214Y-88645692D01*
X167786214Y-88645692D02*
X167846690Y-88675930D01*
X167846690Y-88675930D02*
X167876928Y-88706168D01*
X167876928Y-88706168D02*
X167907166Y-88766644D01*
X167907166Y-88766644D02*
X167907166Y-88857358D01*
X167907166Y-88857358D02*
X167876928Y-88917834D01*
X167876928Y-88917834D02*
X167846690Y-88948073D01*
X167846690Y-88948073D02*
X167786214Y-88978311D01*
X167786214Y-88978311D02*
X167544309Y-88978311D01*
X168149071Y-88706168D02*
X168179309Y-88675930D01*
X168179309Y-88675930D02*
X168239785Y-88645692D01*
X168239785Y-88645692D02*
X168390976Y-88645692D01*
X168390976Y-88645692D02*
X168451452Y-88675930D01*
X168451452Y-88675930D02*
X168481690Y-88706168D01*
X168481690Y-88706168D02*
X168511928Y-88766644D01*
X168511928Y-88766644D02*
X168511928Y-88827120D01*
X168511928Y-88827120D02*
X168481690Y-88917834D01*
X168481690Y-88917834D02*
X168118833Y-89280692D01*
X168118833Y-89280692D02*
X168511928Y-89280692D01*
D13*
%TO.C,J6*%
X120420000Y-84630000D02*
X121800000Y-84630000D01*
X120420000Y-86010000D02*
X120420000Y-84630000D01*
%TO.C,R3*%
X168174641Y-94010733D02*
X167867359Y-94010733D01*
X168174641Y-94770733D02*
X167867359Y-94770733D01*
%TO.C,J4*%
X161695000Y-79430000D02*
X161695000Y-78050000D01*
X163075000Y-79430000D02*
X161695000Y-79430000D01*
D14*
%TO.C,D3*%
X164568000Y-94390733D02*
G75*
G02*
X164468000Y-94390733I-50000J0D01*
G01*
X164468000Y-94390733D02*
G75*
G02*
X164568000Y-94390733I50000J0D01*
G01*
D13*
%TO.C,R4*%
X168174641Y-98545000D02*
X167867359Y-98545000D01*
X168174641Y-99305000D02*
X167867359Y-99305000D01*
%TO.C,R1*%
X168174641Y-84942200D02*
X167867359Y-84942200D01*
X168174641Y-85702200D02*
X167867359Y-85702200D01*
D14*
%TO.C,D4*%
X164568000Y-98925000D02*
G75*
G02*
X164468000Y-98925000I-50000J0D01*
G01*
X164468000Y-98925000D02*
G75*
G02*
X164568000Y-98925000I50000J0D01*
G01*
%TO.C,D2*%
X164568000Y-89875000D02*
G75*
G02*
X164468000Y-89875000I-50000J0D01*
G01*
X164468000Y-89875000D02*
G75*
G02*
X164568000Y-89875000I50000J0D01*
G01*
D13*
%TO.C,J7*%
X120420000Y-92720000D02*
X121800000Y-92720000D01*
X120420000Y-94100000D02*
X120420000Y-92720000D01*
%TO.C,J5*%
X125620000Y-79430000D02*
X125620000Y-78050000D01*
X127000000Y-79430000D02*
X125620000Y-79430000D01*
D14*
%TO.C,D1*%
X164568000Y-85322200D02*
G75*
G02*
X164468000Y-85322200I-50000J0D01*
G01*
X164468000Y-85322200D02*
G75*
G02*
X164568000Y-85322200I50000J0D01*
G01*
D13*
%TO.C,R2*%
X168174641Y-89495000D02*
X167867359Y-89495000D01*
X168174641Y-90255000D02*
X167867359Y-90255000D01*
%TD*%
D15*
X175180000Y-76275000D02*
X175180000Y-106385000D01*
X120000000Y-76275000D02*
X175180000Y-76275000D01*
X120000000Y-76275000D02*
X120000000Y-106385000D01*
X120000000Y-106385000D02*
X175180000Y-106385000D01*
M02*
