M48
; DRILL file {KiCad 9.0.7} date 2026-02-18T13:17:09-0700
; FORMAT={-:-/ absolute / metric / decimal}
; #@! TF.CreationDate,2026-02-18T13:17:09-07:00
; #@! TF.GenerationSoftware,Kicad,Pcbnew,9.0.7
; #@! TF.FileFunction,Plated,1,2,PTH
FMAT,2
METRIC
; #@! TA.AperFunction,Plated,PTH,ViaDrill
T1C0.254
; #@! TA.AperFunction,Plated,PTH,ComponentDrill
T2C1.000
; #@! TA.AperFunction,Plated,PTH,ComponentDrill
T3C2.159
%
G90
G05
T1
X142.096Y-78.325
X143.296Y-78.325
X143.296Y-101.575
X144.096Y-105.75
X144.496Y-81.05
X145.696Y-101.575
X146.496Y-105.75
X149.296Y-81.05
X149.696Y-105.75
X150.496Y-81.05
X154.896Y-81.05
X154.896Y-101.575
X156.496Y-76.875
X156.896Y-105.75
X169.3Y-85.322
X170.35Y-84.122
X170.35Y-86.522
X170.35Y-88.922
X170.35Y-90.122
X170.35Y-91.168
X170.35Y-92.676
X170.35Y-93.722
X170.35Y-98.922
X174.5Y-84.122
X174.5Y-86.729
X174.5Y-87.5
X174.5Y-96.1
X174.5Y-96.922
X174.525Y-95.15
T2
X121.8Y-86.01
X121.8Y-88.55
X121.8Y-94.1
X121.8Y-96.64
X127.0Y-78.05
X129.54Y-78.05
X132.08Y-78.05
X163.075Y-78.05
X165.615Y-78.05
X168.155Y-78.05
X169.357Y-101.527
X169.375Y-81.153
T3
X120.564Y-76.552
X122.207Y-104.301
X173.043Y-78.355
X173.043Y-104.301
M30
